<?xml version="1.0" standalone="no"?>
<!DOCTYPE svg PUBLIC "-//W3C//DTD SVG 20010904//EN"
 "http://www.w3.org/TR/2001/REC-SVG-20010904/DTD/svg10.dtd">
<svg version="1.0" xmlns="http://www.w3.org/2000/svg"
 width="512.000000pt" height="512.000000pt" viewBox="0 0 512.000000 512.000000"
 preserveAspectRatio="xMidYMid meet">
<metadata>
Created by potrace 1.14, written by Peter Selinger 2001-2017
</metadata>
<g transform="translate(0.000000,512.000000) scale(0.100000,-0.100000)"
fill="#000000" stroke="none">
<path d="M2487 4204 c-1 -1 -38 -5 -82 -9 -305 -24 -650 -166 -880 -359 -33
-28 -70 -60 -84 -71 -50 -42 -189 -205 -244 -288 -67 -100 -144 -252 -181
-355 -26 -74 -75 -255 -81 -303 -52 -411 18 -771 214 -1099 40 -66 86 -135
101 -150 3 -3 18 -23 34 -45 17 -22 76 -86 133 -142 196 -193 495 -361 748
-418 118 -27 161 -34 251 -41 240 -19 446 6 669 80 88 30 280 116 310 139 6 4
33 22 60 39 147 94 312 250 422 399 108 146 168 258 228 422 17 48 35 84 40
80 4 -5 5 -2 1 5 -4 7 -1 41 8 75 8 34 18 78 21 97 3 19 8 42 10 50 24 90 21
400 -5 530 -5 25 -12 56 -14 70 -21 116 -71 251 -150 405 -251 492 -756 833
-1302 881 -75 6 -223 11 -227 8z m288 -168 c17 -4 63 -14 104 -22 196 -39 405
-135 578 -265 100 -74 259 -241 329 -344 54 -79 161 -281 168 -317 2 -7 8 -26
15 -43 17 -40 59 -219 68 -286 7 -58 9 -319 3 -382 -2 -21 -8 -41 -12 -43 -5
-3 -6 -9 -3 -14 8 -13 -22 -143 -57 -244 -71 -208 -188 -394 -350 -560 -59
-61 -108 -106 -108 -101 0 6 -5 2 -11 -7 -22 -39 -254 -176 -404 -240 -72 -30
-194 -61 -325 -82 -85 -14 -346 -15 -420 -2 -35 7 -140 28 -150 31 -3 1 -18 5
-35 9 -55 14 -198 69 -269 104 -74 36 -199 113 -223 138 -8 8 -18 14 -23 14
-17 0 -230 218 -283 290 -70 95 -86 122 -147 245 -50 102 -94 222 -105 285 -3
19 -8 43 -11 53 -21 67 -33 209 -30 348 2 86 6 161 9 166 3 4 8 29 12 53 25
182 127 425 252 603 72 104 243 274 351 351 190 135 443 234 667 262 28 4 52
8 54 10 6 5 324 -4 356 -10z"/>
<path d="M1549 3271 c-65 -25 -115 -66 -147 -120 -33 -56 -36 -70 -36 -146 1
-154 119 -268 275 -268 242 0 362 295 191 468 -73 74 -190 101 -283 66z m183
-109 c52 -33 81 -93 76 -157 -8 -100 -74 -160 -175 -159 -95 0 -163 70 -165
169 -1 43 4 62 26 95 50 76 161 99 238 52z"/>
<path d="M3383 3268 c-27 -10 -67 -36 -90 -58 -185 -177 -53 -488 201 -474 74
5 134 32 186 85 49 51 66 88 74 164 22 200 -180 354 -371 283z m177 -104 c55
-30 83 -69 93 -132 7 -41 -10 -105 -25 -96 -7 5 -8 2 -3 -5 12 -20 -45 -70
-98 -86 -44 -13 -54 -13 -99 3 -88 29 -132 110 -114 207 9 44 71 111 112 120
16 4 34 8 39 10 16 4 68 -7 95 -21z"/>
<path d="M2253 2612 l-103 -3 0 -49 0 -50 110 0 c61 0 207 -1 325 -1 118 0
253 1 300 1 l85 0 0 50 0 49 -307 3 c-170 2 -354 2 -410 0z"/>
</g>
</svg>
